# xmcd
#
# Track frame offsets:
#	150
#	12415
#	28182
#	41789
#	52252
#	66616
#	80217
#	90451
#	104233
#	116247
#	132577
#	145075
#	158345
#	180859
#	194515
#	209701
#	221021
#	235551
#	250384
#
# Disc length: 3575 seconds
# Revision: 0
# Processed by: cddbd v1.5.2PL0 Copyright (c) Steve Scherf et al.
# Submitted via: dBpowerAMP V12.0
#
DISCID=290df513
DTITLE=The Byrds - Farther Along
DYEAR=1971
DGENRE=Rock
TTITLE0=Tiffany Queen
TTITLE1=Get Down Your Line
TTITLE2=Farther Along
TTITLE3=B. B. Class Road
TTITLE4=Bugler
TTITLE5=America's Great National Pastime
TTITLE6=Antique Sandy
TTITLE7=Precious Kate
TTITLE8=So Fine
TTITLE9=Lazy Waters
TTITLE10=Bristol Steam Convention Blues
TTITLE11=America's Great National Pastime (single version)
TTITLE12=Lost My Drivin' Wheel
TTITLE13=Born to Rock and Roll
TTITLE14=Bag Full of Money
TTITLE15=He Was a Friend of Mine
TTITLE16=Paths of Victory
TTITLE17=From a Distance
TTITLE18=Love That Never Dies
EXTD=
EXTT0=
EXTT1=
EXTT2=
EXTT3=
EXTT4=
EXTT5=
EXTT6=
EXTT7=
EXTT8=
EXTT9=
EXTT10=
EXTT11=
EXTT12=
EXTT13=
EXTT14=
EXTT15=
EXTT16=
EXTT17=
EXTT18=
PLAYORDER=
